<svg width="22" height="20" viewBox="0 0 22 20" fill="none" xmlns="http://www.w3.org/2000/svg">
<path id="Vector" d="M19.176 7.05474C17.2584 7.05474 16.4744 5.69865 17.4279 4.03532C17.9788 3.07123 17.6504 1.84227 16.6863 1.29136L14.8534 0.242508C14.0165 -0.255431 12.9358 0.0412139 12.4379 0.878176L12.3213 1.07947C11.3678 2.7428 9.79987 2.7428 8.83577 1.07947L8.71923 0.878176C8.60503 0.67792 8.45213 0.502379 8.26945 0.361765C8.08677 0.221151 7.87794 0.118274 7.65513 0.0591199C7.43231 -3.42498e-05 7.19996 -0.0142841 6.97159 0.0171996C6.74322 0.0486833 6.52338 0.125272 6.32489 0.242508L4.49205 1.29136C3.52795 1.84227 3.19952 3.08182 3.75044 4.04592C4.71453 5.69865 3.93054 7.05474 2.01295 7.05474C0.911123 7.05474 0 7.95527 0 9.06769V10.9323C0 12.0341 0.900529 12.9453 2.01295 12.9453C3.93054 12.9453 4.71453 14.3013 3.75044 15.9647C3.19952 16.9288 3.52795 18.1577 4.49205 18.7086L6.32489 19.7575C7.16185 20.2554 8.24248 19.9588 8.74042 19.1218L8.85696 18.9205C9.81046 17.2572 11.3784 17.2572 12.3425 18.9205L12.4591 19.1218C12.957 19.9588 14.0377 20.2554 14.8746 19.7575L16.7075 18.7086C17.6715 18.1577 18 16.9182 17.4491 15.9647C16.485 14.3013 17.269 12.9453 19.1866 12.9453C20.2884 12.9453 21.1995 12.0447 21.1995 10.9323V9.06769C21.1939 8.53371 20.9786 8.02334 20.6 7.64673C20.2215 7.27012 19.71 7.05749 19.176 7.05474ZM10.5945 13.4432C8.69805 13.4432 7.15126 11.8964 7.15126 10C7.15126 8.10359 8.69805 6.5568 10.5945 6.5568C12.4909 6.5568 14.0377 8.10359 14.0377 10C14.0377 11.8964 12.4909 13.4432 10.5945 13.4432Z" fill="#575555"/>
</svg>
