<svg width="24" height="20" viewBox="0 0 24 20" fill="none" xmlns="http://www.w3.org/2000/svg">
<g id="Group 2">
<path id="Vector" d="M22.3176 14.8C22.0353 17.9412 19.7647 20 16.4706 20H5.88235C2.63529 20 0 17.3647 0 14.1176V5.88235C0 2.68235 1.92941 0.447059 4.92941 0.0705882C5.23529 0.0235293 5.55294 0 5.88235 0H16.4706C16.7765 0 17.0706 0.0117647 17.3529 0.0588235C20.1647 0.388235 22.0706 2.35294 22.3176 5.2C22.3243 5.28057 22.3139 5.36162 22.2871 5.43791C22.2604 5.5142 22.2179 5.58401 22.1624 5.64281C22.107 5.70161 22.0397 5.74809 21.9651 5.77922C21.8905 5.81035 21.8102 5.82545 21.7294 5.82353H19.9059C18.7765 5.82353 17.7294 6.25882 16.9765 7.03529C16.0824 7.90588 15.6353 9.12941 15.7412 10.3529C15.9294 12.4941 17.8118 14.1765 20.0471 14.1765H21.7294C22.0706 14.1765 22.3529 14.4588 22.3176 14.8Z" fill="#575555"/>
<path id="Vector_2" d="M23.5294 8.78789V11.2114C23.5294 11.8585 23.0117 12.3879 22.3529 12.4114H20.047C18.7764 12.4114 17.6117 11.482 17.5059 10.2114C17.4353 9.47024 17.7176 8.77613 18.2117 8.29377C18.647 7.84671 19.247 7.58789 19.9059 7.58789H22.3529C23.0117 7.61142 23.5294 8.14083 23.5294 8.78789Z" fill="#575555"/>
</g>
</svg>
